<!DOCTYPE svg PUBLIC "-//W3C//DTD SVG 1.1//EN" "http://www.w3.org/Graphics/SVG/1.1/DTD/svg11.dtd">
<!-- Uploaded to: SVG Repo, www.svgrepo.com, Transformed by: SVG Repo Mixer Tools -->
<svg height="800px" width="800px" version="1.1" id="_x32_" xmlns="http://www.w3.org/2000/svg" xmlns:xlink="http://www.w3.org/1999/xlink" viewBox="0 0 512 512" xml:space="preserve" fill="#ffffff">
<g id="SVGRepo_bgCarrier" stroke-width="0"/>
<g id="SVGRepo_tracerCarrier" stroke-linecap="round" stroke-linejoin="round"/>
<g id="SVGRepo_iconCarrier"> <style type="text/css"> .st0{fill:#FFFFFF;} </style> <g> <polygon class="st0" points="187.064,173.461 187.064,201.337 221.126,173.461 "/> <path class="st0" d="M500.719,340.038c-8.916-14.432-21.426-22.568-31.504-27.053c-10.112-4.492-17.944-5.474-18.469-5.544 l-0.249-0.034l-107.093-9.075l-13.326,26.659c-1.114-0.463-2.219-0.926-3.083-1.341c-1.735-0.829-2.952-1.569-3.712-2.156 c-1.147-0.934-1.34-1.265-1.721-2.157c-0.352-0.884-0.684-2.682-0.677-5.723c0-6.055,0-13.257,0-22.229 c5.482-3.746,10.679-7.88,15.303-12.496c48.494-48.494,44.589-115.533,44.589-117.413c0-1.894,0-32.845,0-40.4 c0-7.555-4.928-15.103-12.594-15.103c-2.523,0-13.859-27.703-13.859-27.703s1.272,3.146-1.258-11.957 c-2.502-15.123-36.502-42.191-42.176-45.335c-5.661-3.152-10.7-0.629-10.7,1.887s0,10.064,0,10.064h-16.367v-5.73 c0-5.516-4.472-10.002-10.002-10.002h-17.695H238.42c-5.516,0-10.002,4.486-10.002,10.002v5.73h-16.36c0,0,0-7.548,0-10.064 s-5.046-5.039-10.707-1.887c-5.661,3.144-39.668,30.212-42.184,45.335c-2.516,15.103-1.258,11.957-1.258,11.957 s-11.336,27.703-13.852,27.703c-7.658,0-12.594,7.548-12.594,15.103c0,7.555,0,38.506,0,40.4c0,1.88-3.912,68.918,44.589,117.413 c4.555,4.548,9.67,8.612,15.062,12.317c0,9.062,0,16.312,0,22.408c0,2.536-0.304,4.188-0.678,5.226 c-0.594,1.492-1.064,2.177-3.29,3.677c-1.202,0.781-2.972,1.638-5.184,2.557l-13.374-26.749l-107.218,9.096l-0.117,0.02 c-0.525,0.07-8.356,1.051-18.469,5.544c-10.078,4.486-22.588,12.621-31.504,27.053C3.526,352.68,0.035,369.38,0,387.143 c0.007,17.031,3.359,35.05,10.299,51.293c0.54,2.344,1.645,4.113,2.806,5.572c2.724,3.282,6.234,5.722,10.824,8.405 c8.003,4.589,19.353,9.365,33.827,14.148c43.351,14.266,114.613,28.228,198.247,28.242c67.951,0,127.781-9.248,171.043-20.349 c21.641-5.557,39.114-11.557,51.618-17.266c6.27-2.869,11.274-5.627,15.158-8.488c1.936-1.451,3.622-2.917,5.074-4.7 c1.154-1.452,2.26-3.221,2.806-5.565c3.041-7.126,5.322-14.604,6.995-22.187h0.788c0,0,0.608-3.898,0.995-10.112 c0.906-6.373,1.521-12.753,1.521-18.994C511.958,369.38,508.474,352.68,500.719,340.038z M327.265,123.606h15.103 c2.779,0,5.038,2.246,5.038,5.025c0,2.778-2.26,5.039-5.038,5.039h-15.103c-2.792,0-5.039-2.261-5.039-5.039 C322.226,125.852,324.473,123.606,327.265,123.606z M285.082,61.896c0-2.778,2.261-5.032,5.032-5.032 c2.785,0,5.046,2.254,5.046,5.032v15.11c0,2.779-2.26,5.039-5.046,5.039c-2.772,0-5.032-2.26-5.032-5.039V61.896z M217.09,61.896 c0-2.778,2.254-5.032,5.038-5.032c2.772,0,5.032,2.254,5.032,5.032v15.11c0,2.779-2.26,5.039-5.032,5.039 c-2.785,0-5.038-2.26-5.038-5.039V61.896z M169.867,123.606h15.11c2.792,0,5.039,2.246,5.039,5.025 c0,2.778-2.246,5.039-5.039,5.039h-15.11c-2.779,0-5.032-2.261-5.032-5.039C164.836,125.852,167.088,123.606,169.867,123.606z M165.955,211.739v-51.203c0-2.053,1.659-3.712,3.704-3.712h172.929c2.033,0,3.691,1.652,3.698,3.712v51.203 c-0.034,1.569-0.456,3.298-2.509,5.682c-3.054,3.532-10.354,8.121-24.33,11.529c-13.941,3.442-34.4,5.799-63.32,5.792 c-38.568,0.028-62.083-4.222-75.174-9.51c-6.552-2.619-10.423-5.46-12.482-7.81C166.411,215.037,165.983,213.308,165.955,211.739z M175.943,236.92c4.002,1.617,8.544,3.096,13.803,4.402c15.42,3.788,36.758,6.159,66.382,6.159 c39.495-0.021,64.247-4.175,79.909-10.424c0.09-0.035,0.166-0.076,0.256-0.118c-5.212,21.503-37.228,62.09-80.165,62.09 C213.156,299.03,181.141,258.416,175.943,236.92z M306.156,321.591c-9.511,5.986-28.518,15.911-50.153,15.911 c-21.731,0-40.808-10.002-50.277-15.98c0.609-2.53,0.954-5.136,0.961-7.907c0-3.884,0-8.28,0-13.257 c14.618,7.382,30.156,12.289,43.766,14.729h11.335c13.527-2.426,28.982-7.298,43.524-14.605c0,4.921,0,9.283,0,13.133 C305.32,316.421,305.604,319.02,306.156,321.591z M159.389,314.741l12.794,25.588l83.82,50.976l4.044-2.461l79.77-48.508 l12.794-25.602l16.408,1.389l-23.97,44.589l-89.046,54.148l-89.053-54.148l-23.963-44.582L159.389,314.741z M487.103,433.08 l-0.512,1.182l-0.021,0.2c-0.67,0.684-2.398,2.177-4.983,3.698c-6.02,3.677-16.423,8.301-30.108,12.904 c-41.167,13.907-112.236,28.186-195.476,28.173c-66.527,0-125.23-9.089-167.171-19.865c-20.956-5.37-37.76-11.19-49.026-16.347 c-5.619-2.557-9.877-4.983-12.352-6.836c-1.05-0.774-1.686-1.389-2.032-1.763l-0.013-0.172l-0.519-1.182 c-2.336-5.329-4.092-11.032-5.55-16.824h73.874v-95.896l32.874-2.785l29.154,54.245l100.762,61.274l100.762-61.274l29.154-54.252 l38.631,3.276v95.412h68.11C491.195,422.041,489.446,427.744,487.103,433.08z"/> </g> </g>
</svg>