<?xml version="1.0" encoding="utf-8"?>

<!DOCTYPE svg PUBLIC "-//W3C//DTD SVG 1.1//EN" "http://www.w3.org/Graphics/SVG/1.1/DTD/svg11.dtd">
<!-- Uploaded to: SVG Repo, www.svgrepo.com, Generator: SVG Repo Mixer Tools -->
<svg height="800px" width="800px" version="1.1" id="_x32_" xmlns="http://www.w3.org/2000/svg" xmlns:xlink="http://www.w3.org/1999/xlink" 
	 viewBox="0 0 512 512"  xml:space="preserve">
<style type="text/css">
	.st0{fill:#000000;}
</style>
<g>
	<path class="st0" d="M491.937,362.788c-8.6-13.905-20.662-21.754-30.376-26.08c-9.752-4.327-17.302-5.275-17.807-5.342l-0.24-0.031
		l-103.244-8.751l-12.852,25.696c-1.069-0.444-2.14-0.888-2.973-1.287c-1.67-0.805-2.844-1.512-3.581-2.084
		c-1.106-0.896-1.287-1.219-1.655-2.077c-0.339-0.85-0.662-2.588-0.651-5.516c0-7.502,0-16.9,0-29.368
		c5.575-3.815,10.692-8.164,15.139-13.228c2.07-2.348,3.943-4.906,5.798-7.487c-0.094,0.797-0.218,1.542-0.226,2.506
		c0.056,1.558,0.022,3.439,1.399,6.35c0.711,1.422,1.976,3.161,3.932,4.448c1.937,1.317,4.375,1.918,6.317,1.888
		c2.449-0.03,4.187-0.677,5.564-1.309c2.054-0.986,3.51-2.108,5.064-3.447c1.531-1.331,3.093-2.904,4.857-4.838
		c11.362-12.611,21.415-31.611,29.086-54.109c7.607-22.476,12.615-48.353,12.629-74.29c0-6.494-0.32-12.987-0.997-19.421
		c-3.465-32.529-16.942-68.217-41.362-96.45c-12.216-14.094-27.228-26.268-45.05-34.899C302.895,5.026,282.292-0.008,259.252,0
		c-1.065,0-2.152,0.015-3.258,0.038C254.914,0.015,253.831,0,252.748,0c-23.041-0.008-43.643,5.026-61.457,13.664
		c-26.75,12.964-47.096,33.831-61.329,57.3c-14.24,23.491-22.494,49.639-25.082,74.048c-0.678,6.441-0.994,12.927-0.994,19.421
		c0.012,25.937,5.019,51.814,12.626,74.29c7.671,22.484,17.724,41.498,29.082,54.109c2.36,2.58,4.33,4.507,6.408,6.11
		c1.054,0.79,2.137,1.528,3.518,2.175c1.373,0.632,3.111,1.286,5.568,1.309c1.945,0.03,4.398-0.579,6.328-1.896
		c1.455-0.963,2.554-2.198,3.284-3.333c1.102-1.731,1.505-3.206,1.75-4.41c0.234-1.196,0.282-2.174,0.286-3.055
		c-0.012-0.91-0.132-1.603-0.214-2.37c4.91,6.847,10.508,12.897,17.066,17.991c1.234,0.956,2.562,1.806,3.856,2.694
		c0,12.423,0,21.783,0,29.27c0.004,2.446-0.29,4.041-0.647,5.034c-0.58,1.444-1.031,2.107-3.172,3.552
		c-1.163,0.752-2.871,1.58-5.004,2.46l-12.89-25.779l-103.372,8.766l-0.113,0.016c-0.501,0.067-8.056,1.015-17.807,5.342
		c-9.714,4.326-21.776,12.175-30.373,26.08c-7.48,12.19-10.835,28.293-10.876,45.418c0.011,16.419,3.243,33.792,9.932,49.452
		c0.522,2.257,1.587,3.965,2.704,5.372c2.631,3.161,6.016,5.516,10.441,8.096c7.716,4.432,18.653,9.03,32.611,13.65
		c41.788,13.747,110.494,27.209,191.124,27.224c65.513,0,123.192-8.916,164.9-19.616c20.87-5.358,37.717-11.144,49.768-16.652
		c6.038-2.762,10.869-5.418,14.609-8.179c1.873-1.4,3.491-2.814,4.894-4.523c1.114-1.407,2.178-3.115,2.705-5.364
		c6.69-15.674,9.921-33.048,9.933-49.459C502.769,391.081,499.414,374.978,491.937,362.788z M313.214,293.487
		c-6.633,5.139-14.326,9.045-23.695,11.738c-7.292,2.092-15.647,3.401-25.166,3.883V269.65c21.814-0.271,41.273-1.942,57.386-5.862
		c6.083-1.482,11.686-3.303,16.825-5.485C331.845,273.638,323.783,285.3,313.214,293.487z M304.358,345.008
		c-9.168,5.771-27.498,15.343-48.356,15.343c-20.952,0-39.346-9.647-48.473-15.41c0.587-2.438,0.925-4.951,0.929-7.623
		c0-5.779,0-12.649,0-21.167c3.172,1.31,6.43,2.521,9.887,3.507c11.012,3.16,23.462,4.696,37.657,4.696
		c14.191,0,26.641-1.535,37.656-4.696c3.465-0.986,6.705-2.242,9.884-3.551c0,8.532,0,15.425,0,21.211
		C303.549,340.019,303.82,342.532,304.358,345.008z M340.676,240.349c-0.873,0.556-1.742,1.114-2.709,1.64
		c-7.901,4.32-18.939,7.608-32.416,9.7c-11.953,1.874-25.899,2.791-41.197,2.987v-30.971h76.322V240.349z M235.527,21.641
		c5.519-0.738,11.234-1.174,17.22-1.174c0.993,0,2.001,0.015,3.021,0.046h0.278h0.204c0.985-0.03,1.986-0.046,3.002-0.046
		c5.986,0,11.701,0.437,17.22,1.174v80.256h-40.945V21.641z M171.196,162.274c-0.004-2.738,0.2-4.92,0.606-6.418
		c0.433-1.512,0.873-2.325,1.783-3.296l0.004-0.008c3.902-4.033,9.267-6.298,14.872-6.298h135.081
		c5.602,0,10.967,2.265,14.868,6.298l-7.122-7.352l7.126,7.352c0.911,0.978,1.351,1.791,1.784,3.311
		c0.406,1.49,0.614,3.672,0.606,6.411c0,1.61-0.06,3.401-0.124,5.327l-0.004,0.166v40.927H171.324v-40.927l-0.004-0.166
		C171.256,165.675,171.196,163.884,171.196,162.274z M171.324,223.705h78.014v30.956c-19.646-0.399-36.807-2.137-50.422-5.448
		c-7.852-1.918-14.507-4.349-19.778-7.224c-3.104-1.685-5.658-3.529-7.814-5.477V223.705z M189.564,284.796
		c-6.84-7.743-12.476-17.638-17.393-29.518c10.131,5.448,22.603,8.969,37.062,11.241c12.043,1.882,25.539,2.829,40.106,3.108v39.526
		c-10.211-0.406-19.146-1.715-26.859-3.928C208.439,301.162,198.13,294.466,189.564,284.796z M401.85,405.558v27.291h83.177
		c-1.486,6.78-3.499,13.447-6.216,19.647l-0.5,1.128l-0.016,0.203c-0.65,0.655-2.318,2.1-4.812,3.559
		c-5.801,3.552-15.832,8.006-29.026,12.446c-26.411,8.924-65.64,17.976-112.548,23.055V458.44h0.004v-25.591h-0.004h-24.45h-27.296
		h-24.452v48.902h24.452V458.44h27.296v36.645c-16.468,1.204-33.65,1.911-51.457,1.911c-11.979,0-23.586-0.398-34.978-0.963v-63.184
		h-28.093h-4.436l-11.829,29h16.265v32.265c-38-3.401-71.57-9.458-98.101-16.276c-20.204-5.177-36.4-10.79-47.262-15.756
		c-5.422-2.468-9.519-4.801-11.908-6.592c-1.012-0.745-1.63-1.339-1.96-1.7l-0.011-0.166l-0.5-1.136
		c-2.717-6.193-4.729-12.86-6.216-19.64h74.636v-27.291H24.268c0.328-14.026,3.473-26.742,8.564-34.876
		c6.576-10.64,15.868-16.757,23.717-20.256c3.905-1.738,7.408-2.807,9.876-3.424c1.23-0.293,2.209-0.489,2.841-0.61l0.688-0.105
		l0.102-0.015l92.801-7.871l12.336,24.673l80.81,49.142l3.902-2.37l76.904-46.765l12.336-24.688l92.801,7.878
		c0.414,0.045,6.655,0.971,14.244,4.485c7.694,3.559,16.607,9.608,22.98,19.925c5.091,8.141,8.236,20.85,8.562,34.876H401.85z"/>
</g>
</svg>